# xmcd CD database file
#
# Track frame offsets:
#	180
#	24638
#	46614
#	64854
#	96161
#	119994
#	141355
#	172975
#	195044
#	215104
#	235660
#
# Disc length: 3430 seconds
#
# Revision: 0
# Processed by: cddbd v1.5.1PL0 Copyright (c) Steve Scherf et al.
# Submitted via: cdripper 1.0.12
#
DISCID=990d640b
DTITLE=Lou Wilson and Today's People - True Blues
DYEAR=1999
DGENRE=Blues
TTITLE0=Play the Blues
TTITLE1=Dipped in Love
TTITLE2=Miss Leading Mis Guiding
TTITLE3=Willie Long Green
TTITLE4=We Can Be Friends
TTITLE5=Momma Didn't Raise No Fool
TTITLE6=Love Don't Seem Like Love Anymore
TTITLE7=Bowevil Man
TTITLE8=Don't Think
TTITLE9=Real Deal
TTITLE10=Kick the Habit
EXTD=YEAR: 1999
EXTT0=
EXTT1=
EXTT2=
EXTT3=
EXTT4=
EXTT5=
EXTT6=
EXTT7=
EXTT8=
EXTT9=
EXTT10=
PLAYORDER=
